<svg xmlns="http://www.w3.org/2000/svg" xmlns:xlink="http://www.w3.org/1999/xlink" width="500" zoomAndPan="magnify" viewBox="0 0 375 374.999991" height="500" preserveAspectRatio="xMidYMid meet" version="1.2"><defs><clipPath id="529a8fc9dc"><path d="M 0 148 L 188 148 L 188 313.40625 L 0 313.40625 Z M 0 148 "/></clipPath><clipPath id="f7b432d438"><path d="M 187 61.40625 L 375 61.40625 L 375 227 L 187 227 Z M 187 61.40625 "/></clipPath></defs><g id="e0fe0c7ec2"><g clip-rule="nonzero" clip-path="url(#529a8fc9dc)"><path style=" stroke:none;fill-rule:nonzero;fill:#0652e9;fill-opacity:1;" d="M 126.175781 265.128906 L 126.175781 287.9375 L 22.882812 239.949219 L 22.882812 221.441406 L 126.175781 173.453125 L 126.175781 196.265625 L 48.058594 230.480469 L 48.058594 230.910156 Z M 187.519531 148.105469 L 14.78125 148.105469 C 6.628906 148.105469 0.015625 154.71875 0.015625 162.875 L 0.015625 298.515625 C 0.015625 306.667969 6.628906 313.28125 14.78125 313.28125 L 139.570312 313.28125 L 187.519531 148.105469 "/></g><g clip-rule="nonzero" clip-path="url(#f7b432d438)"><path style=" stroke:none;fill-rule:nonzero;fill:#62e1e9;fill-opacity:1;" d="M 351.878906 153.976562 L 248.589844 201.316406 L 248.589844 178.503906 L 328.425781 144.292969 L 328.425781 143.859375 L 248.589844 109.640625 L 248.589844 86.835938 L 351.878906 134.175781 Z M 235.476562 61.488281 L 187.519531 226.664062 L 359.980469 226.664062 C 368.136719 226.664062 374.746094 220.050781 374.746094 211.894531 L 374.746094 76.253906 C 374.746094 68.101562 368.136719 61.488281 359.980469 61.488281 L 235.476562 61.488281 "/></g></g></svg>